<svg id="Layer_1" data-name="Layer 1" xmlns="http://www.w3.org/2000/svg" xmlns:xlink="http://www.w3.org/1999/xlink" viewBox="0 0 436.69 124.51"><defs><style>.cls-1{fill:none;}.cls-2{fill:#282828;}.cls-3{clip-path:url(#clip-path);}.cls-4{fill:url(#linear-gradient);}.cls-5{fill:url(#linear-gradient-2);}.cls-6{fill:url(#linear-gradient-3);}.cls-7{fill:url(#linear-gradient-4);}.cls-8{fill:url(#linear-gradient-5);}.cls-9{fill:url(#linear-gradient-6);}.cls-10{fill:url(#linear-gradient-7);}.cls-11{fill:#fff;}.cls-12{fill:#faa81d;}</style><clipPath id="clip-path"><path class="cls-1" d="M74.15,77.86l0-39.13V16.11A9.53,9.53,0,0,0,59.89,7.85l-19.6,11.3L11.16,36a9.55,9.55,0,0,0-4.77,8.26V91.9a9.52,9.52,0,0,0,4.76,8.25l14.3,8.26,14.29,8.26a9.52,9.52,0,0,0,9.53,0l10.06-5.81,10.07-5.8a9.52,9.52,0,0,0,4.76-8.25v-19"/></clipPath><linearGradient id="linear-gradient" x1="-450.24" y1="2633.9" x2="-483.68" y2="2691.69" gradientTransform="matrix(0.5, 0.87, 0.87, -0.5, -2015.86, 1763.41)" gradientUnits="userSpaceOnUse"><stop offset="0" stop-color="#030303"/><stop offset="1" stop-color="#39393a"/></linearGradient><linearGradient id="linear-gradient-2" x1="-458.18" y1="2628.09" x2="-432.8" y2="2584.01" gradientTransform="matrix(0.5, 0.87, 0.87, -0.5, -2015.86, 1763.41)" gradientUnits="userSpaceOnUse"><stop offset="0" stop-color="#39393a"/><stop offset="1" stop-color="#4d4d4f"/></linearGradient><linearGradient id="linear-gradient-3" x1="-432.8" y1="2606.13" x2="-394.67" y2="2606.13" gradientTransform="matrix(0.5, 0.87, 0.87, -0.5, -2015.86, 1763.41)" gradientUnits="userSpaceOnUse"><stop offset="0" stop-color="#232324"/><stop offset="1" stop-color="#39393a"/></linearGradient><linearGradient id="linear-gradient-4" x1="-424.32" y1="2623.25" x2="-394.67" y2="2623.25" gradientTransform="matrix(0.5, 0.87, 0.87, -0.5, -2015.86, 1763.41)" gradientUnits="userSpaceOnUse"><stop offset="0" stop-color="#4d4d4f"/><stop offset="1" stop-color="#414042"/></linearGradient><linearGradient id="linear-gradient-5" x1="-415.85" y1="2640.37" x2="-394.67" y2="2640.37" xlink:href="#linear-gradient"/><linearGradient id="linear-gradient-6" x1="-432.8" y1="2642.81" x2="-415.85" y2="2642.81" gradientTransform="matrix(0.5, 0.87, 0.87, -0.5, -2015.86, 1763.41)" gradientUnits="userSpaceOnUse"><stop offset="0" stop-color="#39393a"/><stop offset="1" stop-color="#414042"/></linearGradient><linearGradient id="linear-gradient-7" x1="-432.8" y1="2633.03" x2="-415.85" y2="2633.03" gradientTransform="matrix(0.5, 0.87, 0.87, -0.5, -2015.86, 1763.41)" gradientUnits="userSpaceOnUse"><stop offset="0" stop-color="#faa81e"/><stop offset="1" stop-color="#f79421"/></linearGradient></defs><title>ivc-logo</title><path class="cls-2" d="M74.15,77.86l0-39.13V16.11A9.53,9.53,0,0,0,59.89,7.85l-19.6,11.3L11.16,36a9.55,9.55,0,0,0-4.77,8.26V91.9a9.52,9.52,0,0,0,4.76,8.25l14.3,8.26,14.29,8.26a9.52,9.52,0,0,0,9.53,0l10.06-5.81,10.07-5.8a9.52,9.52,0,0,0,4.76-8.25v-19"/><g class="cls-3"><polygon class="cls-4" points="40.29 19.15 74.19 -0.4 74.17 38.73 74.15 77.86 40.27 58.28 6.39 38.7 40.29 19.15"/></g><g class="cls-3"><polygon class="cls-5" points="31.79 82.74 6.37 97.4 6.38 68.05 6.39 38.7 31.8 53.39 57.21 68.07 31.79 82.74"/></g><g class="cls-3"><polygon class="cls-6" points="25.43 86.4 44.5 75.41 44.49 97.42 44.48 119.43 25.43 108.41 6.37 97.4 25.43 86.4"/></g><g class="cls-3"><polygon class="cls-7" points="59.31 110.87 44.48 119.43 44.49 102.31 44.5 85.19 59.32 93.75 74.14 102.32 59.31 110.87"/></g><g class="cls-3"><polygon class="cls-8" points="63.56 83.97 74.15 77.86 74.15 90.09 74.14 102.32 63.55 96.2 52.97 90.08 63.56 83.97"/></g><g class="cls-3"><polygon class="cls-9" points="65.68 82.75 57.2 87.64 57.21 77.86 57.21 68.07 65.68 72.97 74.15 77.86 65.68 82.75"/></g><g class="cls-3"><path class="cls-10" d="M57.21,68.07l-6.35,3.67L44.5,75.41v9.78l4.23,2.45L53,90.08l2.12-1.22,2.11-1.22"/></g><path class="cls-11" d="M120,46.68A5,5,0,0,1,121.39,43a4.83,4.83,0,0,1,6.86,0,5,5,0,0,1,1.38,3.65,4.81,4.81,0,1,1-9.62,0Z"/><path class="cls-11" d="M121.35,60a7.53,7.53,0,0,1,1-.1H123a6.66,6.66,0,0,1,4.32,1.34q1.65,1.34,1.65,4.73V94.26c0,1.72.25,3.82.76,4.53s1.68,1.07,3.52,1.07v3.21a14.38,14.38,0,0,1-2.19.44,17.88,17.88,0,0,1-2.71.18,7.94,7.94,0,0,1-4-.8,5.14,5.14,0,0,1-2-2.14,8.15,8.15,0,0,1-.8-3c-.09-1.1-.13-3.07-.13-4.14V60Z"/><path class="cls-11" d="M175.56,60.36a8.5,8.5,0,0,0-2-.23,4.73,4.73,0,0,0-4.06,1.74,18,18,0,0,0-2.36,5l-9.71,28L147.9,66.55a15.38,15.38,0,0,0-2.27-4.77,4.75,4.75,0,0,0-4-1.65,12.61,12.61,0,0,0-4,.72L153,102.61a1.39,1.39,0,0,0,1.3.9h5.83a1.37,1.37,0,0,0,1.29-.89l15.7-41.68A5.42,5.42,0,0,0,175.56,60.36Z"/><path class="cls-11" d="M212.4,70.91a18,18,0,0,0-3.91-3.34A11.88,11.88,0,0,0,202,66a13.25,13.25,0,0,0-5.79,1.16,10.69,10.69,0,0,0-4,3.25,13.9,13.9,0,0,0-2.27,4.9,24.71,24.71,0,0,0-.71,6,26.08,26.08,0,0,0,.71,6.19,14.35,14.35,0,0,0,2.27,5A11,11,0,0,0,196.28,96a13.22,13.22,0,0,0,6,1.25,11.59,11.59,0,0,0,4.32-.76,14,14,0,0,0,3.25-1.74,11.79,11.79,0,0,0,2.85-2.49c.24.24.52.55.85.94s.65.8,1,1.24a8.08,8.08,0,0,1,.8,1.38,3.36,3.36,0,0,1,.31,1.34c0,.83-.62,1.78-1.87,2.85a14.14,14.14,0,0,1-4.85,2.59,24.37,24.37,0,0,1-7.71,1.06,27.41,27.41,0,0,1-6.28-.8,15.81,15.81,0,0,1-6.42-3.21,18.65,18.65,0,0,1-5-6.72q-2.05-4.32-2-11.45a24.18,24.18,0,0,1,2.14-10.87,19.4,19.4,0,0,1,5.25-6.73,18.9,18.9,0,0,1,6.64-3.43,23.64,23.64,0,0,1,6.19-1,22.42,22.42,0,0,1,5.75.67,18.62,18.62,0,0,1,4.37,1.69,10.32,10.32,0,0,1,2.8,2.18,3.51,3.51,0,0,1,1,2.23,5.14,5.14,0,0,1-.71,2.41,19.44,19.44,0,0,1-1.43,2.31Z"/><path class="cls-12" d="M393.34,50.11a4.81,4.81,0,0,1-8.24-3.43A5,5,0,0,1,386.48,43a4.83,4.83,0,0,1,6.86,0,5,5,0,0,1,1.38,3.65A4.61,4.61,0,0,1,393.34,50.11Zm.05,43.52c0,1.07-.05,2.86-.14,4a8,8,0,0,1-.8,3,5,5,0,0,1-2.05,2.14,7.94,7.94,0,0,1-4,.8,21,21,0,0,1-2.71-.18,11.16,11.16,0,0,1-2.18-.44V99.68c1.84,0,3-.35,3.52-1.07a9.67,9.67,0,0,0,.75-4.35V65.93q0-3.39,1.65-4.73a6.66,6.66,0,0,1,4.32-1.34h.58a7.8,7.8,0,0,1,1,.1V93.63Z"/><path class="cls-12" d="M435,68.78a10.9,10.9,0,0,0-2.62-4.9,11.45,11.45,0,0,0-4.91-2.94,25,25,0,0,0-7.57-1,34.86,34.86,0,0,0-5.43.44,30,30,0,0,0-5,1.25,14.91,14.91,0,0,0-3.69,1.83,2.78,2.78,0,0,0-1.43,2.18,6.51,6.51,0,0,0,.49,2.14,13.64,13.64,0,0,0,1.2,2.49h.89a24.69,24.69,0,0,1,5.35-2.8,19.64,19.64,0,0,1,6.77-1q5.43,0,7.35,2.1c1.28,1.39,1.92,3.43,1.92,6.1V76a17.09,17.09,0,0,0-1.87-.09h-1.87a58,58,0,0,0-7.26.71,26.3,26.3,0,0,0-7.45,2.32A16.85,16.85,0,0,0,404,83.57a11.69,11.69,0,0,0-2.36,7.57,13.32,13.32,0,0,0,1.24,6.15,10.86,10.86,0,0,0,7.44,5.79,21.66,21.66,0,0,0,12.88-1,23.34,23.34,0,0,0,5.17-2.66,7.29,7.29,0,0,0,1,.09h.4a6.67,6.67,0,0,0,4.33-1.34c1.1-.89,1.64-2.46,1.64-4.72V75.55A27,27,0,0,0,435,68.78Zm-6.63,22a3.6,3.6,0,0,1-.94,2.23,9.65,9.65,0,0,1-2.54,2.13,16.35,16.35,0,0,1-3.7,1.65,14.23,14.23,0,0,1-4.41.67q-4.37,0-6-2a7.5,7.5,0,0,1-1.6-4.72,6.8,6.8,0,0,1,1.51-4.54,10.11,10.11,0,0,1,3.93-2.77,20.48,20.48,0,0,1,5.34-1.33,47.61,47.61,0,0,1,5.79-.36h2.59v9.09Z"/><path class="cls-12" d="M372,42.87a6.64,6.64,0,0,0-4.32-1.34h-.58a7.29,7.29,0,0,0-1,.09V63.79a17.58,17.58,0,0,0-4.59-3,15.61,15.61,0,0,0-6.81-1.34A17.53,17.53,0,0,0,348,60.76a15.65,15.65,0,0,0-5.71,4.05,20,20,0,0,0-3.92,7A31.39,31.39,0,0,0,336.85,82a31.39,31.39,0,0,0,1.43,10.12,17.9,17.9,0,0,0,3.87,6.68,15,15,0,0,0,5.66,3.7,19.59,19.59,0,0,0,6.68,1.15,16,16,0,0,0,4.1-.49,18.18,18.18,0,0,0,3.35-1.2,12.18,12.18,0,0,0,2.53-1.6c.65-.54,1.18-1,1.63-1.47a7,7,0,0,0,1,.09h.58A6.62,6.62,0,0,0,372,97.61c1.1-.9,1.65-2.47,1.65-4.73V47.59Q373.65,44.2,372,42.87Zm-5.92,48.45a3,3,0,0,1-.71,2.14,6.44,6.44,0,0,1-2.05,1.87,13.62,13.62,0,0,1-3.17,1.33,13.89,13.89,0,0,1-4,.54A11,11,0,0,1,350.8,96a9.38,9.38,0,0,1-3.52-3.39,14.62,14.62,0,0,1-1.87-5.12,35.6,35.6,0,0,1-.54-6.42q0-7.57,2.94-11.36a9.62,9.62,0,0,1,8-3.78,13.64,13.64,0,0,1,3.83.49,12.94,12.94,0,0,1,5.12,2.76,13.21,13.21,0,0,1,1.3,1.29V91.32Z"/><path class="cls-12" d="M285.52,77q0-2-.09-4.23a20.18,20.18,0,0,0-.53-4,12,12,0,0,0-4.06-6.69q-3.16-2.67-9-2.67a18.75,18.75,0,0,0-8.06,1.65,17.58,17.58,0,0,0-5.57,3.87A8.6,8.6,0,0,0,256,62.45a12.39,12.39,0,0,0-2.94-1.74,16.67,16.67,0,0,0-3.3-1,17.92,17.92,0,0,0-3.29-.31A18.51,18.51,0,0,0,238.61,61a17.72,17.72,0,0,0-5.39,3.7,5,5,0,0,0-1.83-3.43,6,6,0,0,0-3.78-1.12H227a9.6,9.6,0,0,0-1.12.09v37.3h0v0c0,2.25.55,3.83,1.65,4.72a6.66,6.66,0,0,0,4.32,1.34h.58a7.54,7.54,0,0,0,1-.09V72.43a3.48,3.48,0,0,1,.89-2.18,9.16,9.16,0,0,1,2.31-2A12.9,12.9,0,0,1,240,66.82a13.24,13.24,0,0,1,3.78-.54q6.51,0,8,4.46a14.1,14.1,0,0,1,.63,3,32.47,32.47,0,0,1,.18,3.52V98a1.74,1.74,0,0,0,1.74,1.75h4.09A1.74,1.74,0,0,0,260.13,98V76.88c0-1.18,0-2.33-.09-3.43s-.15-2.15-.27-3.16a11.27,11.27,0,0,1,3.79-2.76A12.28,12.28,0,0,1,269,66.28q4,0,5.88,1.25a6,6,0,0,1,2.49,3.56,10,10,0,0,1,.49,2.9c0,1,.05,2.12.05,3.25V92.57h0v11a7.42,7.42,0,0,0,1,.09h.58a6.62,6.62,0,0,0,4.32-1.34c1.1-.89,1.65-2.47,1.65-4.72"/><path class="cls-12" d="M326,92.12c-.42.48-.94,1-1.56,1.6a10.44,10.44,0,0,1-2.36,1.65,15.8,15.8,0,0,1-3.39,1.29,16.8,16.8,0,0,1-4.45.54q-6.6,0-9.76-4t-3.43-10.47H327c.63,0,2.34-.52,2.43-2,0,0,0,0,0,0s0-.3,0-.46c0-.86,0-1.7,0-2.54a24.53,24.53,0,0,0-1-6.9,16.6,16.6,0,0,0-3-5.88,14.64,14.64,0,0,0-5.3-4,18.36,18.36,0,0,0-7.8-1.52,20.63,20.63,0,0,0-7.08,1.25,16.76,16.76,0,0,0-6.1,3.87,19.62,19.62,0,0,0-4.32,6.73A25.93,25.93,0,0,0,293.22,81a30.48,30.48,0,0,0,1.6,10.56,18.64,18.64,0,0,0,4.37,7,16.45,16.45,0,0,0,6.46,3.87,25.34,25.34,0,0,0,7.88,1.2,25.84,25.84,0,0,0,7.76-1,18.08,18.08,0,0,0,5.25-2.54,5.51,5.51,0,0,0,1.52-1.56A2.93,2.93,0,0,0,328.5,97a5.23,5.23,0,0,0-.76-2.23A17.69,17.69,0,0,0,326,92.12ZM304.4,68.69a10.24,10.24,0,0,1,7.62-3,11.13,11.13,0,0,1,4.68.89A7.8,7.8,0,0,1,319.77,69a9.87,9.87,0,0,1,1.65,3.61,19.44,19.44,0,0,1,.49,4.45H301.06A12.69,12.69,0,0,1,304.4,68.69Z"/><path class="cls-11" d="M64.63,6.56a9.55,9.55,0,0,1,9.55,9.55l0,74v6.73a9.55,9.55,0,0,1-4.77,8.25l-10.07,5.8-10.06,5.81a9.54,9.54,0,0,1-9.53,0l-14.29-8.26-14.3-8.26A9.52,9.52,0,0,1,6.37,91.9V44.21A9.55,9.55,0,0,1,11.16,36l29.13-16.8,19.6-11.3a9.38,9.38,0,0,1,4.74-1.29m0-3.87h0A13.42,13.42,0,0,0,58,4.49L38.35,15.8,9.22,32.6a13.43,13.43,0,0,0-6.7,11.6V91.9a13.43,13.43,0,0,0,6.69,11.61l14.3,8.26L37.78,120a13.52,13.52,0,0,0,6.71,1.8,13.38,13.38,0,0,0,6.7-1.8l10.06-5.8,10.06-5.8A13.45,13.45,0,0,0,78,96.82V90.09l0-74A13.28,13.28,0,0,0,74,6.45,13.63,13.63,0,0,0,64.63,2.69Z"/></svg>